<svg width="200" height="200" viewBox="0 0 32 32" fill="none" xmlns="http://www.w3.org/2000/svg">
<path d="M17.147 24.4909C17.147 20.3894 20.472 17.0644 24.5735 17.0644C28.675 17.0644 32 20.3894 32 24.4909C32 28.5924 28.675 31.9174 24.5735 31.9174C20.472 31.9174 17.147 28.5924 17.147 24.4909Z" fill="#333333" fill-opacity="0.6"/>
<path d="M17.147 7.4265C17.147 3.325 20.472 0 24.5735 0C28.675 0 32 3.325 32 7.4265V14.1104C32 14.3073 31.9218 14.4962 31.7825 14.6355C31.6432 14.7748 31.4543 14.853 31.2574 14.853H17.8896C17.6927 14.853 17.5038 14.7748 17.3646 14.6355C17.2253 14.4963 17.147 14.3074 17.147 14.1105V7.42637V7.4265Z" fill="#333333" fill-opacity="0.3"/>
<path d="M1 24L8 17L15 24L8 31L1 24V24Z" fill="black"/>
<path d="M8.78368 25.8624C8.48272 26.9516 6.95967 27.2551 5.89263 26.7882C5.00799 26.4148 4.84383 25.38 5.12655 24.6487C5.58255 23.5984 7.08736 23.505 8.2 23.5439C8.36416 23.5361 8.50096 23.5672 8.66512 23.5128C8.63776 23.2638 8.64688 22.9915 8.5648 22.7503C8.44624 22.408 8.08144 22.3146 7.70752 22.2913C7.08735 22.2446 6.62223 22.5402 6.27567 22.9526C5.92911 22.6647 5.59167 22.3924 5.24511 22.1123C6.10239 20.743 9.20321 20.5796 10.1152 21.9489C10.3432 22.2913 10.4071 22.6647 10.4071 23.046C10.4162 23.9018 10.4071 24.7498 10.4071 25.6056C10.5895 25.6446 11.009 25.4967 10.9999 25.7301V26.726C10.9999 26.8194 10.9634 26.8505 10.8539 26.8505C10.5074 26.8427 10.1517 26.8505 9.80513 26.8271C9.23968 26.796 8.91136 26.3136 8.8384 25.8702C8.82016 25.8702 8.80192 25.8624 8.78368 25.8624V25.8624ZM8.67424 24.4697C8.03584 24.5242 7.1056 24.2519 6.83199 24.8354C6.72255 25.1233 6.71343 25.4267 6.93231 25.6912C7.38832 26.018 8.26384 25.9013 8.55568 25.4812C8.63776 25.1544 8.63776 24.8121 8.67424 24.4697V24.4697Z" fill="white"/>
</svg>
