<svg width="32" height="32" viewBox="0 0 32 32" fill="none" xmlns="http://www.w3.org/2000/svg">
<g clip-path="url(#clip0_0_1)">
<path d="M17.147 24.4909C17.147 20.3894 20.472 17.0644 24.5735 17.0644C28.675 17.0644 32 20.3894 32 24.4909C32 28.5924 28.675 31.9174 24.5735 31.9174C20.472 31.9174 17.147 28.5924 17.147 24.4909Z" fill="#333333" fill-opacity="0.6"/>
<path d="M17.147 7.4265C17.147 3.325 20.472 0 24.5735 0C28.675 0 32 3.325 32 7.4265V14.1104C32 14.3073 31.9218 14.4962 31.7825 14.6355C31.6432 14.7748 31.4543 14.853 31.2574 14.853H17.8896C17.6927 14.853 17.5038 14.7748 17.3646 14.6355C17.2253 14.4963 17.147 14.3074 17.147 14.1105V7.42637V7.4265Z" fill="#333333" fill-opacity="0.3"/>
<path d="M14.853 24.4909C14.853 28.5924 11.528 31.9174 7.4265 31.9174C3.325 31.9174 1.05246e-08 28.5925 1.05246e-08 24.4909V17.807C-1.64096e-05 17.7095 0.0191809 17.6129 0.0564955 17.5228C0.0938101 17.4327 0.148511 17.3508 0.217473 17.2819C0.286436 17.2129 0.368308 17.1582 0.458415 17.1209C0.548522 17.0836 0.645097 17.0644 0.742625 17.0644H14.1104C14.5204 17.0644 14.853 17.3969 14.853 17.807V24.4908V24.4909Z" fill="#333333"/>
<path d="M1 8.5L7.5 2L14 8.5L7.5 15L1 8.5V8.5Z" fill="black"/>
<path d="M8.15307 10.052C7.90227 10.9597 6.63306 11.2125 5.74386 10.8235C5.00665 10.5123 4.86985 9.65002 5.10546 9.04057C5.48546 8.16529 6.73946 8.08749 7.66667 8.11991C7.80347 8.11342 7.91747 8.13936 8.05427 8.09397C8.03147 7.8865 8.03907 7.65958 7.97067 7.45859C7.87187 7.17331 7.56787 7.09551 7.25626 7.07606C6.73946 7.03716 6.35186 7.28353 6.06306 7.62716C5.77426 7.38727 5.49306 7.16035 5.20426 6.92694C5.91866 5.78584 8.50267 5.64969 9.26267 6.79079C9.45268 7.07606 9.50588 7.38727 9.50588 7.70496C9.51348 8.41815 9.50588 9.12485 9.50588 9.83804C9.65788 9.87046 10.0075 9.74727 9.99988 9.94178V10.7717C9.99988 10.8495 9.96948 10.8754 9.87828 10.8754C9.58948 10.8689 9.29307 10.8754 9.00427 10.856C8.53307 10.83 8.25947 10.428 8.19867 10.0585C8.18347 10.0585 8.16827 10.052 8.15307 10.052V10.052ZM8.06187 8.89145C7.52987 8.93683 6.75466 8.70991 6.52666 9.19617C6.43546 9.43606 6.42786 9.68892 6.61026 9.90936C6.99026 10.1817 7.71987 10.0844 7.96307 9.7343C8.03147 9.462 8.03147 9.17672 8.06187 8.89145V8.89145Z" fill="white"/>
</g>
<defs>
<clipPath id="clip0_0_1">
<rect width="32" height="32" fill="white"/>
</clipPath>
</defs>
</svg>
